<svg xmlns="http://www.w3.org/2000/svg" xmlns:xlink="http://www.w3.org/1999/xlink" width="1920" height="1080" viewBox="0 0 1920 1080"><defs><style>.a{clip-path:url(#f);}.b{fill:url(#a);}.c,.j,.k,.l{fill:#707070;}.d{fill:url(#b);}.e{fill:url(#c);}.f{fill:url(#d);}.g{fill:#666;}.h{fill:rgba(0,0,0,0);}.i{fill:rgba(14,176,52,0.19);}.j{font-size:30px;}.j,.k,.l{font-family:SegoeUI-Bold, Segoe UI;font-weight:700;}.k{font-size:25px;}.l{font-size:35px;}.m{fill:#fff;}</style><radialGradient id="a" cx="0.5" cy="0.5" r="0.5" gradientUnits="objectBoundingBox"><stop offset="0" stop-color="#01071f" stop-opacity="0"/><stop offset="1" stop-color="#3301fa" stop-opacity="0.251"/></radialGradient><radialGradient id="b" cx="0.5" cy="0.5" r="0.5" gradientUnits="objectBoundingBox"><stop offset="0" stop-color="#010617" stop-opacity="0"/><stop offset="1" stop-color="#2c1ce9" stop-opacity="0.259"/></radialGradient><radialGradient id="c" cx="0.5" cy="0.5" r="0.5" gradientUnits="objectBoundingBox"><stop offset="0" stop-color="#130404" stop-opacity="0"/><stop offset="1" stop-color="#180ea7" stop-opacity="0.259"/></radialGradient><radialGradient id="d" cx="0.5" cy="0.5" r="0.5" gradientUnits="objectBoundingBox"><stop offset="0" stop-color="#010206" stop-opacity="0"/><stop offset="1" stop-color="#2a00fe" stop-opacity="0.22"/></radialGradient><clipPath id="f"><rect width="1920" height="1080"/></clipPath></defs><g id="e" class="a"><rect class="m" width="1920" height="1080"/><circle class="b" cx="123.5" cy="123.5" r="123.5" transform="translate(415 405)"/><path class="c" d="M123.5,1A123.41,123.41,0,0,0,98.811,3.489a121.823,121.823,0,0,0-43.8,18.432,122.861,122.861,0,0,0-44.384,53.9A121.875,121.875,0,0,0,3.489,98.811a123.7,123.7,0,0,0,0,49.378,121.823,121.823,0,0,0,18.432,43.8,122.861,122.861,0,0,0,53.9,44.384,121.875,121.875,0,0,0,22.993,7.137,123.7,123.7,0,0,0,49.378,0,121.823,121.823,0,0,0,43.8-18.432,122.861,122.861,0,0,0,44.384-53.9,121.875,121.875,0,0,0,7.137-22.993,123.7,123.7,0,0,0,0-49.378,121.823,121.823,0,0,0-18.432-43.8,122.861,122.861,0,0,0-53.9-44.384,121.875,121.875,0,0,0-22.993-7.137A123.41,123.41,0,0,0,123.5,1m0-1A123.5,123.5,0,1,1,0,123.5,123.5,123.5,0,0,1,123.5,0Z" transform="translate(415 405)"/><circle class="d" cx="123.5" cy="123.5" r="123.5" transform="translate(1245 405)"/><path class="c" d="M123.5,1A123.41,123.41,0,0,0,98.811,3.489a121.823,121.823,0,0,0-43.8,18.432,122.861,122.861,0,0,0-44.384,53.9A121.875,121.875,0,0,0,3.489,98.811a123.7,123.7,0,0,0,0,49.378,121.823,121.823,0,0,0,18.432,43.8,122.861,122.861,0,0,0,53.9,44.384,121.875,121.875,0,0,0,22.993,7.137,123.7,123.7,0,0,0,49.378,0,121.823,121.823,0,0,0,43.8-18.432,122.861,122.861,0,0,0,44.384-53.9,121.875,121.875,0,0,0,7.137-22.993,123.7,123.7,0,0,0,0-49.378,121.823,121.823,0,0,0-18.432-43.8,122.861,122.861,0,0,0-53.9-44.384,121.875,121.875,0,0,0-22.993-7.137A123.41,123.41,0,0,0,123.5,1m0-1A123.5,123.5,0,1,1,0,123.5,123.5,123.5,0,0,1,123.5,0Z" transform="translate(1245 405)"/><circle class="e" cx="123.5" cy="123.5" r="123.5" transform="translate(837 158)"/><path class="c" d="M123.5,1A123.41,123.41,0,0,0,98.811,3.489a121.823,121.823,0,0,0-43.8,18.432,122.861,122.861,0,0,0-44.384,53.9A121.875,121.875,0,0,0,3.489,98.811a123.7,123.7,0,0,0,0,49.378,121.823,121.823,0,0,0,18.432,43.8,122.861,122.861,0,0,0,53.9,44.384,121.875,121.875,0,0,0,22.993,7.137,123.7,123.7,0,0,0,49.378,0,121.823,121.823,0,0,0,43.8-18.432,122.861,122.861,0,0,0,44.384-53.9,121.875,121.875,0,0,0,7.137-22.993,123.7,123.7,0,0,0,0-49.378,121.823,121.823,0,0,0-18.432-43.8,122.861,122.861,0,0,0-53.9-44.384,121.875,121.875,0,0,0-22.993-7.137A123.41,123.41,0,0,0,123.5,1m0-1A123.5,123.5,0,1,1,0,123.5,123.5,123.5,0,0,1,123.5,0Z" transform="translate(837 158)"/><circle class="f" cx="123.5" cy="123.5" r="123.5" transform="translate(837 652)"/><path class="c" d="M123.5,1A123.41,123.41,0,0,0,98.811,3.489a121.823,121.823,0,0,0-43.8,18.432,122.861,122.861,0,0,0-44.384,53.9A121.875,121.875,0,0,0,3.489,98.811a123.7,123.7,0,0,0,0,49.378,121.823,121.823,0,0,0,18.432,43.8,122.861,122.861,0,0,0,53.9,44.384,121.875,121.875,0,0,0,22.993,7.137,123.7,123.7,0,0,0,49.378,0,121.823,121.823,0,0,0,43.8-18.432,122.861,122.861,0,0,0,44.384-53.9,121.875,121.875,0,0,0,7.137-22.993,123.7,123.7,0,0,0,0-49.378,121.823,121.823,0,0,0-18.432-43.8,122.861,122.861,0,0,0-53.9-44.384,121.875,121.875,0,0,0-22.993-7.137A123.41,123.41,0,0,0,123.5,1m0-1A123.5,123.5,0,1,1,0,123.5,123.5,123.5,0,0,1,123.5,0Z" transform="translate(837 652)"/><g transform="translate(1679.799 -272.044) rotate(90)"><path class="g" d="M554.8,587.3h-1v-277H677.044v1H554.8Z" transform="translate(0 8)"/><path class="h" transform="translate(554.3 595.299)"/><path class="g" d="M-15,8h0L0,0-15-8Z" transform="translate(677.044 318.799)"/><path class="g" d="M-15.5,8.833V-8.833L1.063,0Zm1-16V7.167L-1.063,0Z" transform="translate(677.044 318.799)"/></g><g transform="translate(529.7 341.201)"><path class="g" d="M839.736,437.089H554.3v-1H838.736V310.8h1Z" transform="translate(0)"/><path class="h" transform="translate(839.236 310.799)"/><path class="g" d="M0-8H0L-15,0,0,8Z" transform="translate(569.3 436.588)"/><path class="g" d="M.5-8.833V8.833L-16.062,0Zm-1,16V-7.167L-13.937,0Z" transform="translate(569.3 436.588)"/></g><g transform="translate(1146.864 105.7) rotate(90)"><path class="g" d="M680.59,610.3H554.3v-1H679.59V310.8h1Z" transform="translate(-8)"/><path class="g" d="M15,0h0L0,8l15,8Z" transform="translate(680.09 310.799) rotate(90)"/><path class="g" d="M15.5-.833V16.833L-1.062,8Zm-1,16V.833L1.063,8Z" transform="translate(680.09 310.799) rotate(90)"/><path class="g" d="M0-8H0L-15,0,0,8-3,0Z" transform="translate(561.3 609.799)"/><path class="g" d="M.933-9.064-2.466,0l3.4,9.064L-16.062,0Zm-1.866,16L-3.534,0l2.6-6.936L-13.937,0Z" transform="translate(561.3 609.799)"/></g><g transform="translate(849.099 -249.501) rotate(90)"><path class="g" d="M654.3,311.3h-100v-1h100Z"/><path class="g" d="M15-8h0L0,0,15,8Z" transform="translate(554.3 310.799)"/><path class="g" d="M15.5-8.833V8.833L-1.062,0Zm-1,16V-7.167L1.063,0Z" transform="translate(554.3 310.799)"/><path class="h" transform="translate(654.3 310.799)"/></g><rect class="i" width="259" height="63" transform="translate(403 237)"/><path class="c" d="M1,1V62H258V1H1M0,0H259V63H0Z" transform="translate(403 237)"/><text class="j" transform="translate(882 294)"><tspan x="0" y="0">PLANNING</tspan></text><text class="j" transform="translate(1290 507)"><tspan x="0" y="0">Analysis </tspan><tspan x="0" y="40">and Design</tspan></text><text class="k" transform="translate(851 784)"><tspan x="0" y="0">IMPLEMENTATION</tspan></text><text class="l" transform="translate(467 543)"><tspan x="0" y="0">TESTING</tspan></text><text class="j" transform="translate(429 279)"><tspan x="0" y="0">Normalization</tspan></text><g transform="translate(1270.799 -149.3) rotate(90)"><path class="g" d="M627.562,610.962h-1V311.3H554.3v-1h73.261Z" transform="translate(0 8)"/><path class="h" transform="translate(627.062 618.962)"/><path class="g" d="M0,8H0L-15,0,0-8-3,0Z" transform="translate(569.3 318.799)"/><path class="g" d="M.933,9.064-16.062,0l17-9.064L-2.466,0ZM-13.937,0l13,6.936L-3.534,0l2.6-6.936Z" transform="translate(569.3 318.799)"/></g></g></svg>